<svg width="31" height="28" viewBox="0 0 31 28" fill="none" xmlns="http://www.w3.org/2000/svg">
<path d="M9.68403 0.059075C6.95263 0.367946 4.33631 1.77301 2.57998 3.86243C-0.859995 7.96255 -0.859995 13.8251 2.57998 17.9252C4.09406 19.736 6.27433 21.0442 8.59389 21.5408C9.62346 21.7649 10.2473 21.7951 13.6509 21.7951C16.7457 21.7951 16.9576 21.8012 16.994 21.9042C17.1333 22.3039 17.5633 23.1215 17.9024 23.6363C18.3748 24.357 19.3075 25.3078 19.9858 25.7741C20.87 26.3798 21.9662 26.8522 23.0685 27.0944C23.4076 27.1731 23.9406 27.2034 25.1882 27.2277L26.8536 27.2579L25.8483 26.2344C24.8066 25.1806 24.6068 24.9323 24.2858 24.2964C23.9406 23.606 23.7892 22.9519 23.7528 22.0011L23.7165 21.1471L23.8921 21.1047C24.2615 21.0078 25.4849 20.378 26.1269 19.948C27.75 18.8578 28.937 17.5376 29.7849 15.86C30.9598 13.5525 31.2869 11.0876 30.7478 8.59241C30.4753 7.32664 29.8757 5.91552 29.1308 4.80722C27.3684 2.16667 24.4372 0.404284 21.2395 0.059075C20.5309 -0.019657 10.3684 -0.019657 9.68403 0.059075Z" fill="#E9A260"/>
</svg>
