<svg width="40" height="40" viewBox="0 0 40 40" fill="none" xmlns="http://www.w3.org/2000/svg">
<path d="M29.1667 10.8334H29.1834M11.6667 3.33337H28.3334C32.9357 3.33337 36.6667 7.06433 36.6667 11.6667V28.3334C36.6667 32.9357 32.9357 36.6667 28.3334 36.6667H11.6667C7.06433 36.6667 3.33337 32.9357 3.33337 28.3334V11.6667C3.33337 7.06433 7.06433 3.33337 11.6667 3.33337ZM26.6667 18.95C26.8724 20.3371 26.6355 21.7537 25.9896 22.9984C25.3438 24.2431 24.322 25.2524 23.0694 25.8828C21.8169 26.5133 20.3975 26.7327 19.013 26.5099C17.6286 26.2872 16.3496 25.6335 15.3581 24.642C14.3666 23.6504 13.7129 22.3715 13.4902 20.9871C13.2674 19.6026 13.4868 18.1832 14.1173 16.9307C14.7477 15.6781 15.757 14.6563 17.0017 14.0104C18.2463 13.3646 19.663 13.1277 21.05 13.3334C22.4649 13.5432 23.7748 14.2025 24.7862 15.2139C25.7976 16.2253 26.4569 17.5352 26.6667 18.95Z" stroke="#1E1E1E" stroke-width="4" stroke-linecap="round" stroke-linejoin="round"/>
</svg>
